<?xml version="1.0" encoding="UTF-8" standalone="no"?>
<!-- Created with Inkscape (http://www.inkscape.org/) -->

<svg
   width="114.43255mm"
   height="114.56458mm"
   viewBox="0 0 114.43255 114.56458"
   version="1.1"
   id="svg1"
   inkscape:version="1.4 (e7c3feb100, 2024-10-09)"
   sodipodi:docname="logo.svg"
   inkscape:export-filename="stickies/gc.webp"
   inkscape:export-xdpi="96"
   inkscape:export-ydpi="96"
   xml:space="preserve"
   xmlns:inkscape="http://www.inkscape.org/namespaces/inkscape"
   xmlns:sodipodi="http://sodipodi.sourceforge.net/DTD/sodipodi-0.dtd"
   xmlns="http://www.w3.org/2000/svg"
   xmlns:svg="http://www.w3.org/2000/svg"
   xmlns:rdf="http://www.w3.org/1999/02/22-rdf-syntax-ns#"
   xmlns:cc="http://creativecommons.org/ns#"
   xmlns:dc="http://purl.org/dc/elements/1.1/"><sodipodi:namedview
     id="namedview1"
     pagecolor="#ffffff"
     bordercolor="#000000"
     borderopacity="1"
     inkscape:showpageshadow="false"
     inkscape:pageopacity="0.0"
     inkscape:pagecheckerboard="false"
     inkscape:deskcolor="#111111"
     inkscape:document-units="mm"
     showborder="false"
     borderlayer="false"
     inkscape:zoom="1"
     inkscape:cx="194"
     inkscape:cy="244"
     inkscape:current-layer="layer1"><inkscape:page
       x="0"
       y="0"
       width="114.43255"
       height="114.56458"
       id="page1"
       margin="5.0000005"
       bleed="0" /></sodipodi:namedview><defs
     id="defs1" /><g
     inkscape:label="Layer 1"
     inkscape:groupmode="layer"
     id="layer1"><path
       id="path1-3"
       style="fill:#5660ea;fill-opacity:1;stroke:none"
       d="m 3160.051,-142.05986 c -56,0.2 -112.9,0.19961 -168,0.0996 h -87.5 c -3.9,0 -8.1004,0.30039 -12.9004,0.90039 -20.5,2.7 -39.4996,12.90039 -53.5996,28.90039 -14.2,16.100001 -22.0004,36.599611 -21.9004,57.599611 v 94.30079 78.298829 c 0,3.8 0.3004,7.6 0.9004,11.5 5.4,33.9 24.4008,57.49997 56.3008,70.00002 6.6,2.6 13.4992,3.9008 20.6992,5.3008 2.3,0.5 4.6996,0.9003 7.0996,1.4003 v 1.6993 15.5 c 0,13.6 -0.099,27.7996 0.3008,41.5996 0.2,5.9 2.4008,12.3012 5.8008,16.7012 4.2,5.5 10.1992,8.7992 16.6992,9.1992 h 1.5 c 6.7,0 13.1996,-2.9008 18.5996,-8.3008 26.5,-26.4 50.9,-50.8992 74.5,-74.6992 1.9,-1.9 3.5012,-2.5 6.2012,-2.5 51.1,0.1 93.2,0.1 132.5,0 6.7,0 13.4984,-0.7 20.3984,-2 40.4,-7.5 70.9,-44.09964 71,-85.09964 v -173.499999 -0.09961 c 0,-3.6 -0.3984,-7.00079 -0.8984,-10.80079 -2.6,-20.6 -12.9,-39.800391 -29,-53.900391 -16.3,-14.2 -37.0004,-22.09961 -58.4004,-22.09961 z"
       transform="matrix(0.26458333,0,0,0.26458333,-745.10625,37.586669)" /><path
       id="path1-3-2"
       style="fill:#4a50d9;fill-opacity:1;stroke:none"
       d="M 3221.7023 -117.13407 L 2835.0578 172.28781 C 2844.4915 184.119 2857.2803 193.24176 2873.3527 199.53976 C 2879.9527 202.13976 2886.8519 203.44055 2894.0519 204.84055 C 2896.3519 205.34055 2898.7516 205.74094 2901.1516 206.24094 L 2901.1516 207.94015 L 2901.1516 223.44016 C 2901.1516 237.04016 2901.0525 251.23976 2901.4523 265.03976 C 2901.6523 270.93976 2903.8531 277.34094 2907.2531 281.74094 C 2911.4531 287.24094 2917.4523 290.54016 2923.9523 290.94016 L 2925.4523 290.94016 C 2932.1523 290.94016 2938.6519 288.03937 2944.0519 282.63937 C 2970.5519 256.23937 2994.9519 231.74015 3018.5519 207.94015 C 3020.4519 206.04015 3022.0531 205.44015 3024.7531 205.44015 C 3075.8531 205.54015 3117.9531 205.54015 3157.2531 205.44015 C 3163.9531 205.44015 3170.7516 204.74015 3177.6516 203.44015 C 3218.0516 195.94015 3248.5516 159.34054 3248.6516 118.34054 L 3248.6516 -55.159458 L 3248.6516 -55.259067 C 3248.6516 -58.859067 3248.2531 -62.259849 3247.7531 -66.059849 C 3245.3195 -85.341592 3236.07 -103.33955 3221.7023 -117.13407 z "
       transform="matrix(0.26458333,0,0,0.26458333,-745.10625,37.586669)" /><path
       id="path3"
       style="fill:#ffffff;fill-opacity:1;stroke:none;stroke-width:2;stroke-linecap:round;stroke-linejoin:round"
       d="m 3073.3518,-111.85874 -18.8008,43.20117 -30.3008,-13.20117 -3.5,-1.59961 h -0.1 c -1.5,-0.6 -2.7004,-1.1 -3.9004,-1.5 -14,-5.1 -22.2996,-7.69922 -48.0996,-7.69922 -25.8,0 -47.7992,6.89883 -63.6992,19.79883 -15.5,12.6 -24.0996,18.50039 -24.0996,50.40039 0,31.9 21.8988,54.99961 66.7988,70.59961 28.7,10.1 38.8008,17.1 38.8008,34 0,16.900002 -16.1004,27 -38.4004,27 -22.3,0 -43.0008,-7.2 -54.8008,-13.999998 l -4.6992,-2.69921 -12.0996,42.999998 2.7988,1.69921 c 14.8,8.9 36.8016,15.20118 66.1016,15.20118 29.3,0 53.5,-7.50157 70,-21.60157 h -0.2012 c 15.1,-12.9 23.4004,-17.89961 23.4004,-51.59961 0,-33.7 -19.4992,-55.90039 -63.1992,-71.90039 -33.2,-12.5 -42.3008,-22.89922 -42.3008,-33.69922 0,-10.8 14.1,-23.30078 34.5,-23.30078 20.4,0 35.9008,5.60039 45.3008,10.40039 0,0 4.6988,2.30078 4.7988,2.30078 v -0.5 l 19.7012,8.59961 -18.8008,43.19922 39.6992,17.20117 18.8008,-43.20117 41.4004,18 17.1992,-39.69922 -41.4004,-18 18.8008,-43.19922 z m 56.6992,125.59961 -19,43.70117 -41.9004,-18.20117 -17.4004,40 41.9004,18.201182 -19,43.699208 40,17.4004 19,-43.69922 34.7012,15.09961 2,0.90039 2,-3.40039 c 6,-10.3 10.9988,-21.29961 14.7988,-32.599608 v -0.10157 l 1.3008,-3.69922 -37.4004,-16.199212 19,-43.70118 z"
       sodipodi:nodetypes="ccccccscscssccccsccscssccccccccccccccccccccccccccccc"
       transform="matrix(0.26458333,0,0,0.26458333,-745.10625,37.586669)" /></g><metadata
     id="metadata1"><rdf:RDF><cc:Work
         rdf:about=""><dc:creator><cc:Agent><dc:title>ldev105</dc:title></cc:Agent></dc:creator></cc:Work></rdf:RDF></metadata></svg>
